<?xml version="1.0" encoding="iso-8859-1"?>
<!-- Uploaded to: SVG Repo, www.svgrepo.com, Generator: SVG Repo Mixer Tools -->
<svg version="1.1" id="Layer_1" xmlns="http://www.w3.org/2000/svg" xmlns:xlink="http://www.w3.org/1999/xlink" 
	 viewBox="0 0 392.598 392.598" xml:space="preserve">
<rect x="89.535" y="21.786" style="fill:#FFFFFF;" width="213.398" height="348.962"/>
<path style="fill:#194F82;" d="M313.859,0H78.675c-6.012,0-10.925,4.848-10.925,10.925v370.747c0,6.012,4.848,10.925,10.925,10.925
	h235.249c6.012,0,10.925-4.848,10.925-10.925V10.861C324.784,4.848,319.935,0,313.859,0z M302.998,370.747H89.535V21.786h213.398
	v348.962H302.998z"/>
<path style="fill:#FFC10D;" d="M270.739,43.572H121.794c-5.689,0-10.343,4.655-10.343,10.343v284.509
	c0,5.689,4.655,10.343,10.343,10.343h149.075c5.689,0,10.343-4.655,10.343-10.343V53.98
	C281.212,48.291,276.558,43.572,270.739,43.572z"/>
<g>
	<rect x="133.236" y="65.422" style="fill:#56ACE0;" width="126.19" height="28.638"/>
	<rect x="133.236" y="166.141" style="fill:#56ACE0;" width="97.422" height="14.222"/>
	<path style="fill:#56ACE0;" d="M196.267,262.4c-5.495,0-9.956,4.461-9.956,9.956s4.461,9.956,9.956,9.956s9.956-4.461,9.956-9.956
		C206.222,266.925,201.762,262.4,196.267,262.4z"/>
</g>
<g>
	<path style="fill:#194F82;" d="M270.287,43.572h-148.04c-6.012,0-10.925,4.848-10.925,10.925v50.489
		c0,6.012,4.848,10.925,10.925,10.925h147.976c6.012,0,10.925-4.848,10.925-10.925v-50.36
		C281.212,48.549,276.299,43.572,270.287,43.572z M259.297,94.061H133.236V65.487h126.19v28.574H259.297z"/>
	<path style="fill:#194F82;" d="M241.519,144.356H122.246c-6.012,0-10.925,4.848-10.925,10.925v36.008
		c0,6.012,4.848,10.925,10.925,10.925h119.273c6.012,0,10.925-4.848,10.925-10.925v-36.008
		C252.444,149.204,247.596,144.356,241.519,144.356z M230.659,180.364h-97.422v-14.222h97.422V180.364z"/>
	<path style="fill:#194F82;" d="M196.267,240.614c-17.519,0-31.741,14.287-31.741,31.741s14.287,31.741,31.741,31.741
		c17.519,0,31.741-14.287,31.741-31.741S213.786,240.614,196.267,240.614z M196.267,282.376c-5.495,0-9.956-4.461-9.956-9.956
		c0-5.495,4.461-9.956,9.956-9.956s9.956,4.461,9.956,9.956C206.222,277.851,201.762,282.376,196.267,282.376z"/>
</g>
</svg>